<svg xmlns="http://www.w3.org/2000/svg" xmlns:xlink="http://www.w3.org/1999/xlink" width="370" height="362" viewBox="0 0 370 362"><defs><clipPath id="a"><rect width="370" height="362" transform="translate(755 2163)" fill="#fff" stroke="#707070" stroke-width="1"/></clipPath></defs><g transform="translate(-755 -2163)" clip-path="url(#a)"><g transform="translate(729.773 2133.747)"><path d="M378.409,232.3a168.182,168.182,0,1,0-321.4,69.417H363.441A167.887,167.887,0,0,0,378.409,232.3Z" fill="#f0f2ff"/><line x2="327.955" transform="translate(46.25 301.718)" fill="none" stroke="#4550e5" stroke-linecap="round" stroke-linejoin="round" stroke-width="4.205"/><line x2="10.511" transform="translate(27.33 301.718)" fill="none" stroke="#4550e5" stroke-linecap="round" stroke-linejoin="round" stroke-width="4.205"/><line x2="10.511" transform="translate(382.614 301.718)" fill="none" stroke="#4550e5" stroke-linecap="round" stroke-linejoin="round" stroke-width="4.205"/><ellipse cx="75.682" cy="6.307" rx="75.682" ry="6.307" transform="translate(102.759 343.722)" fill="#f0f2ff"/><path d="M266.568,210.858A25.227,25.227,0,0,0,291.8,185.631V135.176a50.455,50.455,0,0,0-53.818-50.455A51.548,51.548,0,0,0,190.886,136.9v48.731a25.227,25.227,0,0,0,25.227,25.227Z" fill="#fff"/><path d="M266.568,210.858A25.227,25.227,0,0,0,291.8,185.631V135.176a50.455,50.455,0,0,0-53.818-50.455A51.548,51.548,0,0,0,190.886,136.9v48.731a25.227,25.227,0,0,0,25.227,25.227Z" fill="none" stroke="#4550e5" stroke-linecap="round" stroke-linejoin="round" stroke-width="4.205"/><path d="M241.341,203.29a65.591,65.591,0,0,0-65.591,65.8V286.75c0,33.258-11.815,37.841-24.891,37.841H140.432v22.7h10.427c18.332,0,50.118-15.262,50.118-45.409H281.7c0,19.173-14.127,22.7-24.891,22.7H246.386v22.7h10.427c20.686-.21,50.118-4.625,50.118-45.619V269.091a65.549,65.549,0,0,0-65.591-65.8Z" fill="#fff"/><path d="M241.341,203.29a65.591,65.591,0,0,0-65.591,65.8V286.75c0,33.258-11.815,37.841-24.891,37.841H140.432v22.7h10.427c18.332,0,50.118-15.262,50.118-45.409H281.7c0,19.173-14.127,22.7-24.891,22.7H246.386v22.7h10.427c20.686-.21,50.118-4.625,50.118-45.619V269.091a65.549,65.549,0,0,0-65.591-65.8Z" fill="none" stroke="#4550e5" stroke-linecap="round" stroke-linejoin="round" stroke-width="4.205"/><line y2="30.273" transform="translate(200.977 271.403)" fill="none" stroke="#4550e5" stroke-linecap="round" stroke-linejoin="round" stroke-width="4.205"/><line y2="30.273" transform="translate(281.705 271.403)" fill="none" stroke="#4550e5" stroke-linecap="round" stroke-linejoin="round" stroke-width="4.205"/><path d="M246.386,344.773h-7.568a10.091,10.091,0,0,1,0-20.182h7.568Z" fill="#fff" stroke="#4550e5" stroke-linecap="round" stroke-linejoin="round" stroke-width="4.205"/><path d="M140.432,344.773h-7.568a10.091,10.091,0,1,1,0-20.182h7.568Z" fill="#fff" stroke="#4550e5" stroke-linecap="round" stroke-linejoin="round" stroke-width="4.205"/><line y2="65.591" transform="translate(241.341 236.085)" fill="none" stroke="#4550e5" stroke-linecap="round" stroke-linejoin="round" stroke-width="4.205"/><path d="M256.477,205.813l-15.136,30.273L226.2,205.813V193.2h30.273Z" fill="#fff"/><path d="M256.477,205.813l-15.136,30.273L226.2,205.813V193.2h30.273Z" fill="none" stroke="#4550e5" stroke-linecap="round" stroke-linejoin="round" stroke-width="4.205"/><path d="M217.711,229.064a4.174,4.174,0,0,0,6.727-.126l7.568-10.511a4.2,4.2,0,0,0,0-5l-6.223-8.409a65.59,65.59,0,0,0-19.8,8.409Z" fill="#fff" stroke="#4550e5" stroke-linecap="round" stroke-linejoin="round" stroke-width="4.205"/><path d="M264.886,229.064a4.2,4.2,0,0,1-6.727,0l-7.442-10.427a4.2,4.2,0,0,1,0-5l6.223-8.409a65.8,65.8,0,0,1,19.845,8.409Z" fill="#fff" stroke="#4550e5" stroke-linecap="round" stroke-linejoin="round" stroke-width="4.205"/><path d="M284.227,147.79V134.209a45.325,45.325,0,0,1-57.434-10.175,25.648,25.648,0,0,1-23.293,18.92,22.368,22.368,0,0,1-5.045-.589V148a7.61,7.61,0,0,0-7.568,7.568v2.523a7.61,7.61,0,0,0,7.568,7.568h.715a42.844,42.844,0,0,0,84.385,0h.673a7.568,7.568,0,0,0,7.568-7.568v-2.523a7.568,7.568,0,0,0-7.568-7.778Z" fill="#fff" stroke="#4550e5" stroke-linecap="round" stroke-linejoin="round" stroke-width="4.205"/><path d="M221.159,165.449a5.045,5.045,0,1,1-5.045-5.045,5.045,5.045,0,0,1,5.045,5.045Z" fill="#d6daff"/><path d="M271.614,165.449a5.045,5.045,0,1,1-5.045-5.045A5.045,5.045,0,0,1,271.614,165.449Z" fill="#d6daff"/><path d="M228.727,175.54a18.29,18.29,0,0,0,25.227,0" fill="none" stroke="#4550e5" stroke-linecap="round" stroke-linejoin="round" stroke-width="4.205"/><path d="M264.045,152.835a6.853,6.853,0,0,0-12.614,0" fill="none" stroke="#4550e5" stroke-linecap="round" stroke-linejoin="round" stroke-width="4.205"/><path d="M231.25,151.994a6.853,6.853,0,0,0-12.614,0" fill="none" stroke="#4550e5" stroke-linecap="round" stroke-linejoin="round" stroke-width="4.205"/><path d="M180.8,165.449v7.568a22.7,22.7,0,0,0,22.7,22.7h12.614" fill="none" stroke="#4550e5" stroke-linecap="round" stroke-linejoin="round" stroke-width="4.205"/><path d="M185.841,145.267h10.091v25.227H185.841a5.045,5.045,0,0,1-5.045-5.045V150.313A5.045,5.045,0,0,1,185.841,145.267Z" fill="#fff" stroke="#4550e5" stroke-linecap="round" stroke-linejoin="round" stroke-width="4.205"/><path d="M190.886,165.449a5.045,5.045,0,1,0,10.091,0V150.313a5.045,5.045,0,0,0-10.091,0Z" fill="#d6daff" stroke="#4550e5" stroke-linecap="round" stroke-linejoin="round" stroke-width="4.205"/><path d="M291.8,145.267h10.091v25.227H291.8a5.045,5.045,0,0,1-5.045-5.045V150.313A5.046,5.046,0,0,1,291.8,145.267Z" transform="translate(588.636 315.761) rotate(180)" fill="#fff" stroke="#4550e5" stroke-linecap="round" stroke-linejoin="round" stroke-width="4.205"/><path d="M291.8,165.449a5.045,5.045,0,1,1-10.091,0V150.313a5.045,5.045,0,1,1,10.091,0Z" fill="#d6daff" stroke="#4550e5" stroke-linecap="round" stroke-linejoin="round" stroke-width="4.205"/><path d="M231.25,195.722a7.568,7.568,0,1,1-7.568-7.568,7.568,7.568,0,0,1,7.568,7.568Z" fill="#d6daff" stroke="#4550e5" stroke-linecap="round" stroke-linejoin="round" stroke-width="4.205"/><path d="M180.8,157.881v-22.7a60.545,60.545,0,1,1,121.091,0v22.7" fill="none" stroke="#4550e5" stroke-linecap="round" stroke-linejoin="round" stroke-width="4.205"/><path d="M193.956,337.415h9.376l-20.056-62.269a4.2,4.2,0,0,0-4.2-2.9h-6.139Z" fill="#d6daff" stroke="#4550e5" stroke-linejoin="round" stroke-width="4.205"/><path d="M111.967,337.415h81.989l-21.023-65.17H96.7a4.2,4.2,0,0,0-3.994,5.508Z" fill="#d6daff"/><path d="M111.967,337.415H198.16v10.511H120.376a8.409,8.409,0,0,1-8.409-8.409Z" fill="#d6daff" stroke="#4550e5" stroke-linejoin="round" stroke-width="4.205"/><path d="M198.16,337.415H236a2.1,2.1,0,0,1,2.1,2.1,8.409,8.409,0,0,1-8.409,8.409H198.16Z" fill="#d6daff" stroke="#4550e5" stroke-linejoin="round" stroke-width="4.205"/><path d="M147.159,302.727a4.793,4.793,0,0,1,2.1-4.2,4.751,4.751,0,0,0-3.784-2.018c-1.6,0-3.153.925-3.952.925s-2.06-.925-3.406-.883a5.045,5.045,0,0,0-4.2,2.565,10.848,10.848,0,0,0,1.3,10.427c.883,1.261,1.934,2.649,3.28,2.607s1.808-.841,3.364-.841,2.06.841,3.406.8,2.313-1.261,3.2-2.523a13.583,13.583,0,0,0,1.43-2.943,4.457,4.457,0,0,1-2.733-3.91Z" fill="#fff" stroke="#4550e5" stroke-linejoin="round" stroke-width="4.205"/><line y1="1.892" x2="1.892" transform="translate(143.501 289.273)" fill="none" stroke="#4550e5" stroke-linecap="round" stroke-linejoin="round" stroke-width="4.205"/><path d="M111.967,337.415h81.989l-21.023-65.17H96.7a4.2,4.2,0,0,0-3.994,5.508Z" fill="none" stroke="#4550e5" stroke-linejoin="round" stroke-width="4.205"/></g></g></svg>