<svg xmlns="http://www.w3.org/2000/svg" xmlns:xlink="http://www.w3.org/1999/xlink" width="370" height="288" viewBox="0 0 370 288"><defs><clipPath id="a"><rect width="370" height="288" transform="translate(750 130)" fill="#fff" stroke="#707070" stroke-width="1"/></clipPath></defs><g transform="translate(-750 -130)" clip-path="url(#a)"><g transform="translate(736.754 75.749)"><path d="M356.842,212.836A158.6,158.6,0,1,0,53.764,278.257H342.727a158.12,158.12,0,0,0,14.115-65.421Z" fill="#f0f2ff"/><line x2="309.263" transform="translate(43.614 278.257)" fill="none" stroke="#4550e5" stroke-linecap="round" stroke-linejoin="round" stroke-width="3.965"/><line x2="9.912" transform="translate(25.772 278.257)" fill="none" stroke="#4550e5" stroke-linecap="round" stroke-linejoin="round" stroke-width="3.965"/><line x2="9.912" transform="translate(360.807 278.257)" fill="none" stroke="#4550e5" stroke-linecap="round" stroke-linejoin="round" stroke-width="3.965"/><path d="M254.27,172.91,268.5,199a19.824,19.824,0,0,1,2.419,9.516v47.579l3.212,3.251a7.93,7.93,0,0,1,2.339,5.591V278.3h-22.2Z" fill="#d6daff" stroke="#4550e5" stroke-linecap="round" stroke-linejoin="round" stroke-width="3.965"/><line x2="13.877" transform="translate(259.821 247.847)" fill="none" stroke="#4550e5" stroke-linecap="round" stroke-linejoin="round" stroke-width="3.965"/><path d="M109.947,172.91,95.713,199a19.825,19.825,0,0,0-2.419,9.516v47.579l-3.251,3.251a7.93,7.93,0,0,0-2.3,5.591V278.3h22.2Z" fill="#d6daff" stroke="#4550e5" stroke-linecap="round" stroke-linejoin="round" stroke-width="3.965"/><path d="M313.228,88.616a6.066,6.066,0,0,0-2.379.476,11.062,11.062,0,0,0-21.886,0,6.066,6.066,0,0,0-2.379-.476,6.661,6.661,0,1,0,0,13.322h26.644a6.661,6.661,0,1,0,0-13.322Z" fill="#fff"/><path d="M313.228,88.616a6.066,6.066,0,0,0-2.379.476,11.062,11.062,0,0,0-21.886,0,6.066,6.066,0,0,0-2.379-.476,6.661,6.661,0,1,0,0,13.322h26.644a6.661,6.661,0,1,0,0-13.322Z" fill="none" stroke="#4550e5" stroke-linejoin="round" stroke-width="3.965"/><path d="M209.863,67.443v69.386H154.354V67.443H104.4v180.4l2.775,2.775v11.1L104.4,264.5v13.877H259.821V261.724l-2.775-2.775v-8.326l2.775-2.775V67.443Z" fill="#fff"/><path d="M313.228,88.616a6.066,6.066,0,0,0-2.379.476,11.062,11.062,0,0,0-21.886,0,6.066,6.066,0,0,0-2.379-.476,6.661,6.661,0,1,0,0,13.322h26.644a6.661,6.661,0,1,0,0-13.322Z" fill="none" stroke="#4550e5" stroke-linejoin="round" stroke-width="3.965"/><path d="M209.863,67.443v69.386H154.354V67.443H104.4v180.4l2.775,2.775v11.1L104.4,264.5v13.877H259.821V261.724l-2.775-2.775v-8.326l2.775-2.775V67.443Z" fill="none" stroke="#4550e5" stroke-linecap="round" stroke-linejoin="round" stroke-width="3.965"/><rect width="155.425" height="16.653" transform="translate(104.396 208.99)" fill="#d6daff" stroke="#4550e5" stroke-linecap="round" stroke-linejoin="round" stroke-width="3.965"/><path d="M262.794,136.829H101.383a1.388,1.388,0,0,0-1.15,2.141h0a24.662,24.662,0,0,1,3.965,13.639v6.423H259.622v-6.423a24.622,24.622,0,0,1,3.965-13.639h0a1.388,1.388,0,0,0-.793-2.141Z" fill="#d6daff" stroke="#4550e5" stroke-linecap="round" stroke-linejoin="round" stroke-width="3.965"/><path d="M182.108,236.745h0a22.085,22.085,0,0,0-13.877,20.5v21.133h27.754V257.243a22.164,22.164,0,0,0-13.877-20.5Z" fill="#d6daff" stroke="#4550e5" stroke-linecap="round" stroke-linejoin="round" stroke-width="3.965"/><path d="M129.375,242.3h0a22.6,22.6,0,0,0-11.1,20.5v15.582h22.2V262.794a22.679,22.679,0,0,0-11.1-20.5Z" fill="#d6daff" stroke="#4550e5" stroke-linecap="round" stroke-linejoin="round" stroke-width="3.965"/><path d="M129.375,172.91h0a22.6,22.6,0,0,0-11.1,20.5V208.99h22.2V193.408A22.679,22.679,0,0,0,129.375,172.91Z" fill="#d6daff" stroke="#4550e5" stroke-linecap="round" stroke-linejoin="round" stroke-width="3.965"/><path d="M234.842,172.91h0a22.6,22.6,0,0,0-11.1,20.5V208.99h22.085V193.408a22.679,22.679,0,0,0-10.983-20.5Z" fill="#d6daff" stroke="#4550e5" stroke-linecap="round" stroke-linejoin="round" stroke-width="3.965"/><path d="M234.842,242.3h0a22.6,22.6,0,0,0-11.1,20.5v15.582h22.085V262.794a22.679,22.679,0,0,0-10.983-20.5Z" fill="#d6daff" stroke="#4550e5" stroke-linecap="round" stroke-linejoin="round" stroke-width="3.965"/><line y2="36.081" transform="translate(154.354 208.99)" fill="none" stroke="#4550e5" stroke-linecap="round" stroke-linejoin="round" stroke-width="3.965"/><line y2="36.081" transform="translate(209.863 208.99)" fill="none" stroke="#4550e5" stroke-linecap="round" stroke-linejoin="round" stroke-width="3.965"/><line y2="13.877" transform="translate(154.354 159.033)" fill="none" stroke="#4550e5" stroke-linecap="round" stroke-linejoin="round" stroke-width="3.965"/><line y2="13.877" transform="translate(209.863 159.033)" fill="none" stroke="#4550e5" stroke-linecap="round" stroke-linejoin="round" stroke-width="3.965"/><path d="M182.108,167.359h0a22.2,22.2,0,0,0-22.2,22.2V208.99h44.407V189.562A22.2,22.2,0,0,0,182.108,167.359Z" fill="#d6daff" stroke="#4550e5" stroke-linecap="round" stroke-linejoin="round" stroke-width="3.965"/><circle cx="13.877" cy="13.877" r="13.877" transform="translate(168.231 175.685)" fill="#d6daff"/><path d="M192.021,179.928a13.679,13.679,0,0,0-9.912-4.242,13.838,13.838,0,0,0-3.965,27.16Z" fill="#fff"/><circle cx="13.877" cy="13.877" r="13.877" transform="translate(168.231 175.685)" fill="none" stroke="#4550e5" stroke-linecap="round" stroke-linejoin="round" stroke-width="3.965"/><line y2="5.551" transform="translate(154.354 253.397)" fill="none" stroke="#4550e5" stroke-linecap="round" stroke-linejoin="round" stroke-width="3.965"/><line y2="5.551" transform="translate(209.863 253.397)" fill="none" stroke="#4550e5" stroke-linecap="round" stroke-linejoin="round" stroke-width="3.965"/><line y1="16.653" transform="translate(129.375 208.99)" fill="none" stroke="#4550e5" stroke-linecap="round" stroke-linejoin="round" stroke-width="3.965"/><line y1="8.326" transform="translate(115.498 217.317)" fill="none" stroke="#4550e5" stroke-linecap="round" stroke-linejoin="round" stroke-width="3.965"/><line y1="8.326" transform="translate(143.252 217.317)" fill="none" stroke="#4550e5" stroke-linecap="round" stroke-linejoin="round" stroke-width="3.965"/><line y1="16.653" transform="translate(182.108 208.99)" fill="none" stroke="#4550e5" stroke-linecap="round" stroke-linejoin="round" stroke-width="3.965"/><line y1="8.326" transform="translate(168.231 217.317)" fill="none" stroke="#4550e5" stroke-linecap="round" stroke-linejoin="round" stroke-width="3.965"/><line y1="8.326" transform="translate(195.986 217.317)" fill="none" stroke="#4550e5" stroke-linecap="round" stroke-linejoin="round" stroke-width="3.965"/><line y1="16.653" transform="translate(234.842 208.99)" fill="none" stroke="#4550e5" stroke-linecap="round" stroke-linejoin="round" stroke-width="3.965"/><line y1="8.326" transform="translate(220.965 217.317)" fill="none" stroke="#4550e5" stroke-linecap="round" stroke-linejoin="round" stroke-width="3.965"/><line y1="8.326" transform="translate(248.719 217.317)" fill="none" stroke="#4550e5" stroke-linecap="round" stroke-linejoin="round" stroke-width="3.965"/><path d="M126.2,141.983l-2.379-2.379-2.379,2.379a10.784,10.784,0,0,0-3.172,7.692v9.357h11.1v-9.357a10.943,10.943,0,0,0-3.172-7.692Z" fill="#fff" stroke="#4550e5" stroke-linecap="round" stroke-linejoin="round" stroke-width="3.965"/><path d="M155.345,141.983l-2.379-2.379-2.379,2.379a10.784,10.784,0,0,0-3.172,7.692v9.357H158.6v-9.357a10.943,10.943,0,0,0-3.251-7.692Z" fill="#fff" stroke="#4550e5" stroke-linecap="round" stroke-linejoin="round" stroke-width="3.965"/><path d="M184.487,141.983l-2.379-2.379-2.379,2.379a10.785,10.785,0,0,0-3.172,7.692v9.357h11.1v-9.357A10.943,10.943,0,0,0,184.487,141.983Z" fill="#fff" stroke="#4550e5" stroke-linecap="round" stroke-linejoin="round" stroke-width="3.965"/><path d="M213.629,141.983,211.25,139.6l-2.379,2.379a10.784,10.784,0,0,0-3.172,7.692v9.357h11.1v-9.357A10.943,10.943,0,0,0,213.629,141.983Z" fill="#fff" stroke="#4550e5" stroke-linecap="round" stroke-linejoin="round" stroke-width="3.965"/><path d="M237.895,141.983l2.379-2.379,2.379,2.379a10.943,10.943,0,0,1,3.172,7.692v9.357h-11.1v-9.357a10.785,10.785,0,0,1,3.172-7.692Z" fill="#fff" stroke="#4550e5" stroke-linecap="round" stroke-linejoin="round" stroke-width="3.965"/><line y2="5.551" transform="translate(140.477 136.829)" fill="none" stroke="#4550e5" stroke-linecap="round" stroke-linejoin="round" stroke-width="3.965"/><line y2="5.551" transform="translate(112.722 136.829)" fill="none" stroke="#4550e5" stroke-linecap="round" stroke-linejoin="round" stroke-width="3.965"/><line y2="5.551" transform="translate(168.231 136.829)" fill="none" stroke="#4550e5" stroke-linecap="round" stroke-linejoin="round" stroke-width="3.965"/><line y2="5.551" transform="translate(195.986 136.829)" fill="none" stroke="#4550e5" stroke-linecap="round" stroke-linejoin="round" stroke-width="3.965"/><line y2="5.551" transform="translate(223.74 136.829)" fill="none" stroke="#4550e5" stroke-linecap="round" stroke-linejoin="round" stroke-width="3.965"/><line y2="5.551" transform="translate(251.494 136.829)" fill="none" stroke="#4550e5" stroke-linecap="round" stroke-linejoin="round" stroke-width="3.965"/><path d="M180.562,258.948h3.172a3.965,3.965,0,0,1,3.965,3.965v15.463H176.6V262.913A3.965,3.965,0,0,1,180.562,258.948Z" fill="#d6daff"/><path d="M183.734,258.948h-3.172a3.965,3.965,0,0,0-3.965,3.965v15.463h.793l10.071-16.692A3.965,3.965,0,0,0,183.734,258.948Z" fill="#fff"/><path d="M180.562,258.948h3.172a3.965,3.965,0,0,1,3.965,3.965v15.463H176.6V262.913A3.965,3.965,0,0,1,180.562,258.948Z" fill="none" stroke="#4550e5" stroke-linecap="round" stroke-linejoin="round" stroke-width="3.965"/><path d="M118.273,89.647h0a18.952,18.952,0,0,0-5.551,13.441v33.781h11.1V103.088A19.151,19.151,0,0,0,118.273,89.647Z" fill="#d6daff"/><path d="M123.824,108.282v-5.194a19.15,19.15,0,0,0-5.551-13.4h0a18.952,18.952,0,0,0-5.551,13.4v23.789Z" fill="#fff"/><path d="M118.273,89.647h0a18.952,18.952,0,0,0-5.551,13.441v33.781h11.1V103.088A19.151,19.151,0,0,0,118.273,89.647Z" fill="none" stroke="#4550e5" stroke-linecap="round" stroke-linejoin="round" stroke-width="3.965"/><path d="M140.477,89.647h0a18.952,18.952,0,0,0-5.67,13.441v33.781h11.1V103.088A19.151,19.151,0,0,0,140.477,89.647Z" fill="#d6daff"/><path d="M146.028,108.282v-5.194a19.15,19.15,0,0,0-5.551-13.4h0a18.952,18.952,0,0,0-5.67,13.4v23.789Z" fill="#fff"/><path d="M140.477,89.647h0a18.952,18.952,0,0,0-5.67,13.441v33.781h11.1V103.088A19.151,19.151,0,0,0,140.477,89.647Z" fill="none" stroke="#4550e5" stroke-linecap="round" stroke-linejoin="round" stroke-width="3.965"/><path d="M223.74,89.647h0a18.952,18.952,0,0,0-5.67,13.441v33.781h11.1V103.088a19.15,19.15,0,0,0-5.432-13.441Z" fill="#d6daff"/><path d="M229.291,108.282v-5.194a19.151,19.151,0,0,0-5.551-13.4h0a18.952,18.952,0,0,0-5.67,13.4v23.789Z" fill="#fff"/><path d="M223.74,89.647h0a18.952,18.952,0,0,0-5.67,13.441v33.781h11.1V103.088a19.15,19.15,0,0,0-5.432-13.441Z" fill="none" stroke="#4550e5" stroke-linecap="round" stroke-linejoin="round" stroke-width="3.965"/><path d="M245.825,89.647h0a18.952,18.952,0,0,0-5.432,13.441v33.781h11.1V103.088A19.151,19.151,0,0,0,245.825,89.647Z" fill="#d6daff"/><path d="M251.494,108.282v-5.194a19.151,19.151,0,0,0-5.67-13.441h0a18.952,18.952,0,0,0-5.432,13.441v23.789Z" fill="#fff"/><path d="M245.825,89.647h0a18.952,18.952,0,0,0-5.432,13.441v33.781h11.1V103.088A19.151,19.151,0,0,0,245.825,89.647Z" fill="none" stroke="#4550e5" stroke-linecap="round" stroke-linejoin="round" stroke-width="3.965"/><line x2="55.509" transform="translate(101.621 78.545)" fill="none" stroke="#4550e5" stroke-linecap="round" stroke-linejoin="round" stroke-width="3.965"/><line x2="55.509" transform="translate(101.621 67.443)" fill="none" stroke="#4550e5" stroke-linecap="round" stroke-linejoin="round" stroke-width="3.965"/><line x2="55.509" transform="translate(207.087 78.545)" fill="none" stroke="#4550e5" stroke-linecap="round" stroke-linejoin="round" stroke-width="3.965"/><line x2="55.509" transform="translate(207.087 67.443)" fill="none" stroke="#4550e5" stroke-linecap="round" stroke-linejoin="round" stroke-width="3.965"/><line x2="160.975" transform="translate(101.621 159.033)" fill="none" stroke="#4550e5" stroke-linecap="round" stroke-linejoin="round" stroke-width="3.965"/><line x2="183.179" transform="translate(90.519 208.99)" fill="none" stroke="#4550e5" stroke-linecap="round" stroke-linejoin="round" stroke-width="3.965"/><line x1="13.877" transform="translate(90.519 247.847)" fill="none" stroke="#4550e5" stroke-linecap="round" stroke-linejoin="round" stroke-width="3.965"/><rect width="49.958" height="11.102" transform="translate(104.396 67.443)" fill="#d6daff" stroke="#4550e5" stroke-linecap="round" stroke-linejoin="round" stroke-width="3.965"/><rect width="49.958" height="11.102" transform="translate(209.863 67.443)" fill="#d6daff" stroke="#4550e5" stroke-linecap="round" stroke-linejoin="round" stroke-width="3.965"/><line y2="27.754" transform="translate(182.108 175.685)" fill="none" stroke="#4550e5" stroke-linecap="round" stroke-linejoin="round" stroke-width="3.965"/><line x2="27.754" transform="translate(168.231 189.562)" fill="none" stroke="#4550e5" stroke-linecap="round" stroke-linejoin="round" stroke-width="3.965"/><rect width="22.204" height="16.653" transform="translate(118.273 192.338)" fill="#d6daff"/><path d="M118.273,192.338V208.99H126.6l9.992-16.653Z" fill="#fff"/><rect width="22.204" height="16.653" transform="translate(118.273 192.338)" fill="none" stroke="#4550e5" stroke-linecap="round" stroke-linejoin="round" stroke-width="3.965"/><rect width="22.204" height="16.653" transform="translate(223.74 192.338)" fill="#d6daff"/><path d="M223.74,192.338V208.99h8.326l9.992-16.653Z" fill="#fff"/><rect width="22.204" height="16.653" transform="translate(223.74 192.338)" fill="none" stroke="#4550e5" stroke-linecap="round" stroke-linejoin="round" stroke-width="3.965"/><rect width="22.204" height="16.653" transform="translate(118.273 261.724)" fill="#d6daff"/><path d="M118.273,261.724v16.653H126.6l9.992-16.653Z" fill="#fff"/><rect width="22.204" height="16.653" transform="translate(118.273 261.724)" fill="none" stroke="#4550e5" stroke-linecap="round" stroke-linejoin="round" stroke-width="3.965"/><rect width="22.204" height="16.653" transform="translate(223.74 261.724)" fill="#d6daff"/><path d="M223.74,261.724v16.653h8.326l9.992-16.653Z" fill="#fff"/><rect width="22.204" height="16.653" transform="translate(223.74 261.724)" fill="none" stroke="#4550e5" stroke-linecap="round" stroke-linejoin="round" stroke-width="3.965"/><path d="M313.228,246.9c0,9.2-3.291,17.168-6.978,17.168s-6.978-7.93-6.978-17.168,6.978-33.424,6.978-33.424S313.228,237.657,313.228,246.9Z" fill="#d6daff" stroke="#4550e5" stroke-linecap="round" stroke-linejoin="round" stroke-width="3.965"/><line y2="14.313" transform="translate(306.369 264.063)" fill="none" stroke="#4550e5" stroke-linecap="round" stroke-linejoin="round" stroke-width="3.965"/><path d="M68.2,222.035a10.864,10.864,0,0,1-21.688,0" fill="none" stroke="#4550e5" stroke-linecap="round" stroke-linejoin="round" stroke-width="3.965"/><path d="M50.553,218.07h-7.93a2.1,2.1,0,0,1-1.269-.476,1.665,1.665,0,0,0,0,.634l.793,5.908a2.022,2.022,0,0,0,1.982,1.7h5.115a1.943,1.943,0,0,0,1.943-1.7l.793-5.908a1.665,1.665,0,0,0,0-.634,1.9,1.9,0,0,1-1.427.476Z" fill="#fff" stroke="#4550e5" stroke-linecap="round" stroke-linejoin="round" stroke-width="3.965"/><path d="M46.508,209.506a6.027,6.027,0,0,0-5.987,6.027c0,1.745.872,2.458,1.982,2.458h7.93c1.11,0,1.982-.714,1.982-2.458a6.027,6.027,0,0,0-5.909-6.027Z" fill="#d6daff" stroke="#4550e5" stroke-linecap="round" stroke-linejoin="round" stroke-width="3.965"/><path d="M72.241,218.07h-7.93a1.9,1.9,0,0,1-1.229-.476,3.092,3.092,0,0,0,0,.634l.793,5.908a2.022,2.022,0,0,0,1.982,1.7h5.115a1.943,1.943,0,0,0,1.943-1.7l.634-6.066a3.093,3.093,0,0,0,0-.634,1.9,1.9,0,0,1-1.308.634Z" fill="#fff" stroke="#4550e5" stroke-linecap="round" stroke-linejoin="round" stroke-width="3.965"/><path d="M68.2,209.506a6.027,6.027,0,0,0-5.987,6.027c0,1.745.872,2.458,1.982,2.458h7.93c1.11,0,1.982-.714,1.982-2.458a6.027,6.027,0,0,0-5.909-6.027Z" fill="#d6daff" stroke="#4550e5" stroke-linecap="round" stroke-linejoin="round" stroke-width="3.965"/><line y2="45.557" transform="translate(57.372 232.82)" fill="none" stroke="#4550e5" stroke-linecap="round" stroke-linejoin="round" stroke-width="3.965"/><ellipse cx="53.526" cy="5.947" rx="53.526" ry="5.947" transform="translate(77.197 330.356)" fill="#f0f2ff"/><path d="M151.46,272.152v13.956H85.166a3.965,3.965,0,0,0-3.965,3.965v32.592a3.965,3.965,0,0,0,3.37,3.965l9.476,1.467h80.091a3.965,3.965,0,0,0,3.965-3.965V293.4a59.475,59.475,0,0,0-.595-8.406l-1.427-9.873a7.93,7.93,0,0,0-7.93-6.82H155.425A3.965,3.965,0,0,0,151.46,272.152Z" fill="#fff" stroke="#4550e5" stroke-linecap="round" stroke-linejoin="round" stroke-width="3.965"/><path d="M110.343,328.057a7.256,7.256,0,1,1-7.256-7.256,7.256,7.256,0,0,1,7.256,7.256Z" fill="#d6daff" stroke="#4550e5" stroke-linecap="round" stroke-linejoin="round" stroke-width="3.965"/><path d="M162.284,328.057a7.256,7.256,0,1,1-7.256-7.256A7.256,7.256,0,0,1,162.284,328.057Z" fill="#d6daff" stroke="#4550e5" stroke-linecap="round" stroke-linejoin="round" stroke-width="3.965"/><rect width="13.877" height="26.287" transform="translate(119.978 301.769)" fill="#d6daff" stroke="#4550e5" stroke-linecap="round" stroke-linejoin="round" stroke-width="3.965"/><rect width="21.886" height="12.053" transform="translate(90.083 301.769)" fill="#d6daff"/><rect width="21.886" height="12.053" transform="translate(90.083 301.769)" fill="none" stroke="#4550e5" stroke-linecap="round" stroke-linejoin="round" stroke-width="3.965"/><rect width="13.877" height="12.053" transform="translate(141.706 301.769)" fill="#d6daff"/><rect width="13.877" height="12.053" transform="translate(141.706 301.769)" fill="none" stroke="#4550e5" stroke-linecap="round" stroke-linejoin="round" stroke-width="3.965"/><rect width="13.877" height="12.053" transform="translate(164.227 301.769)" fill="#d6daff"/><rect width="13.877" height="12.053" transform="translate(164.227 301.769)" fill="none" stroke="#4550e5" stroke-linecap="round" stroke-linejoin="round" stroke-width="3.965"/><path d="M163.989,286.386h13.679l-1.388-9.833H163.989a3.965,3.965,0,0,0-3.965,3.965V282.5a3.965,3.965,0,0,0,3.965,3.886Z" fill="#d6daff"/><path d="M163.989,286.386h13.679l-1.388-9.833H163.989a3.965,3.965,0,0,0-3.965,3.965V282.5a3.965,3.965,0,0,0,3.965,3.886Z" fill="none" stroke="#4550e5" stroke-linecap="round" stroke-linejoin="round" stroke-width="3.965"/><path d="M90.559,278.376h60.9v7.732H86.594v-3.767A3.965,3.965,0,0,1,90.559,278.376Z" fill="none" stroke="#4550e5" stroke-linecap="round" stroke-linejoin="round" stroke-width="3.965"/><rect width="9.238" height="7.732" transform="translate(97.656 278.376)" fill="none" stroke="#4550e5" stroke-linecap="round" stroke-linejoin="round" stroke-width="3.965"/><rect width="9.238" height="7.732" transform="translate(115.656 278.376)" fill="none" stroke="#4550e5" stroke-linecap="round" stroke-linejoin="round" stroke-width="3.965"/><rect width="9.238" height="7.732" transform="translate(133.855 278.376)" fill="none" stroke="#4550e5" stroke-linecap="round" stroke-linejoin="round" stroke-width="3.965"/><rect width="13.877" height="12.053" transform="translate(119.978 301.769)" fill="#d6daff" stroke="#4550e5" stroke-linecap="round" stroke-linejoin="round" stroke-width="3.965"/><line x2="79.1" transform="translate(90.836 293.959)" fill="none" stroke="#4550e5" stroke-linecap="round" stroke-linejoin="round" stroke-width="3.965"/></g></g></svg>