<svg xmlns="http://www.w3.org/2000/svg" xmlns:xlink="http://www.w3.org/1999/xlink" width="370" height="170" viewBox="0 0 370 170"><defs><clipPath id="a"><rect width="370" height="170" transform="translate(755 120)" fill="#fff" stroke="#707070" stroke-width="1"/></clipPath></defs><g transform="translate(-755 -120)" clip-path="url(#a)"><g transform="translate(824.048 88.633)"><path d="M209.162,124.371A93.075,93.075,0,1,0,31.32,162.881H200.878a92.726,92.726,0,0,0,8.284-38.51Z" fill="#f0f2ff"/><line x2="181.495" transform="translate(24.176 162.764)" fill="none" stroke="#4550e5" stroke-linecap="round" stroke-linejoin="round" stroke-width="2.327"/><line x2="5.817" transform="translate(13.705 162.764)" fill="none" stroke="#4550e5" stroke-linecap="round" stroke-linejoin="round" stroke-width="2.327"/><line x2="5.817" transform="translate(210.325 162.764)" fill="none" stroke="#4550e5" stroke-linecap="round" stroke-linejoin="round" stroke-width="2.327"/><ellipse cx="36.648" cy="3.653" rx="36.648" ry="3.653" transform="translate(79.951 194.061)" fill="#f0f2ff"/><path d="M162.02,165.463V118.67a5.864,5.864,0,0,0-5.864-5.864H77.043a5.864,5.864,0,0,0-5.887,5.864v46.793Z" fill="#d6daff"/><path d="M82.883,165.463l52.773-52.773H77.019a5.864,5.864,0,0,0-5.864,5.98v46.793Z" fill="#fff"/><path d="M162.02,165.463V177.1a5.864,5.864,0,0,1-5.864,5.864H77.043a5.864,5.864,0,0,1-5.864-5.864V165.463Z" fill="#fff" stroke="#4550e5" stroke-linecap="round" stroke-linejoin="round" stroke-width="2.327"/><path d="M119.531,174.259a2.932,2.932,0,1,1-2.932-2.932,2.932,2.932,0,0,1,2.932,2.932Z" fill="#d6daff" stroke="#4550e5" stroke-linecap="round" stroke-linejoin="round" stroke-width="2.327"/><path d="M131.258,194.782H101.917l1.489-11.727h26.387Z" fill="#fff" stroke="#4550e5" stroke-linecap="round" stroke-linejoin="round" stroke-width="2.327"/><line x2="46.886" transform="translate(93.144 194.782)" fill="none" stroke="#4550e5" stroke-linecap="round" stroke-linejoin="round" stroke-width="2.327"/><path d="M162.02,165.463V118.67a5.864,5.864,0,0,0-5.864-5.864H77.043a5.864,5.864,0,0,0-5.887,5.864v46.793Z" fill="none" stroke="#4550e5" stroke-linecap="round" stroke-linejoin="round" stroke-width="2.327"/><path d="M134.19,139.077A17.591,17.591,0,1,1,116.6,121.486,17.591,17.591,0,0,1,134.19,139.077Z" fill="#fff"/><path d="M134.19,139.077A17.591,17.591,0,1,1,116.6,121.486,17.591,17.591,0,0,1,134.19,139.077Z" fill="none" stroke="#4550e5" stroke-linecap="round" stroke-linejoin="round" stroke-width="2.327"/><path d="M113.667,149.338a4.375,4.375,0,0,1-3.118-1.28l-5.84-5.864a4.4,4.4,0,0,1,6.213-6.213l2.769,2.746,7.143-7.143a4.4,4.4,0,0,1,6.213,6.213l-10.261,10.261A4.351,4.351,0,0,1,113.667,149.338Z" fill="#d6daff"/><path d="M113.667,149.338a4.375,4.375,0,0,1-3.118-1.28l-5.84-5.864a4.4,4.4,0,0,1,6.213-6.213l2.769,2.746,7.143-7.143a4.4,4.4,0,0,1,6.213,6.213l-10.261,10.261A4.351,4.351,0,0,1,113.667,149.338Z" fill="none" stroke="#4550e5" stroke-linecap="round" stroke-linejoin="round" stroke-width="2.327"/><rect width="58.637" height="35.182" rx="2.443" transform="translate(2.92 83.232) rotate(-15.83)" fill="#fff"/><path d="M60.08,91.423,56.892,80.137a5.887,5.887,0,0,1-7.26-4.049L15.8,85.675a5.887,5.887,0,0,1-4.049,7.26l3.188,11.285a5.864,5.864,0,0,1,7.26,4.025l33.833-9.587A5.864,5.864,0,0,1,60.08,91.423Z" fill="#fff"/><path d="M41.558,90.562a5.864,5.864,0,1,1-7.237-4.025,5.864,5.864,0,0,1,7.237,4.025Z" fill="#d6daff"/><path d="M41.558,90.562a5.864,5.864,0,1,1-7.237-4.025,5.864,5.864,0,0,1,7.237,4.025Z" fill="none" stroke="#4550e5" stroke-linecap="round" stroke-linejoin="round" stroke-width="2.327"/><path d="M60.08,91.423,56.892,80.137a5.887,5.887,0,0,1-7.26-4.049L15.8,85.675a5.887,5.887,0,0,1-4.049,7.26l3.188,11.285a5.864,5.864,0,0,1,7.26,4.025l33.833-9.587A5.864,5.864,0,0,1,60.08,91.423Z" fill="none" stroke="#4550e5" stroke-linecap="round" stroke-linejoin="round" stroke-width="2.327"/><rect width="58.637" height="35.182" rx="2.443" transform="translate(2.92 83.232) rotate(-15.83)" fill="none" stroke="#4550e5" stroke-linecap="round" stroke-linejoin="round" stroke-width="2.327"/><path d="M215.98,115.738l-41.348-11.844a4.863,4.863,0,0,1-3.351-6.027l6.981-24.432a4.863,4.863,0,0,1,6.027-3.351l41.418,11.844a4.886,4.886,0,0,1,3.351,6.027l-6.981,24.432a4.863,4.863,0,0,1-6.1,3.351Z" fill="#fff"/><rect width="52.773" height="5.864" transform="translate(178.023 74.371) rotate(15.98)" fill="#d6daff"/><line x2="14.101" y2="4.025" transform="translate(177.191 98.543)" fill="none" stroke="#4550e5" stroke-linecap="round" stroke-linejoin="round" stroke-width="2.327"/><rect width="41.046" height="5.864" transform="translate(180.429 87.248) rotate(15.98)" fill="#fff"/><path d="M215.98,115.738l-41.348-11.844a4.863,4.863,0,0,1-3.351-6.027l6.981-24.432a4.863,4.863,0,0,1,6.027-3.351l41.418,11.844a4.886,4.886,0,0,1,3.351,6.027l-6.981,24.432a4.863,4.863,0,0,1-6.1,3.351Z" fill="none" stroke="#4550e5" stroke-linecap="round" stroke-linejoin="round" stroke-width="2.327"/><rect width="52.773" height="5.864" transform="translate(178.023 74.371) rotate(15.98)" fill="none" stroke="#4550e5" stroke-linecap="round" stroke-linejoin="round" stroke-width="2.327"/><rect width="41.046" height="5.864" transform="translate(180.429 87.248) rotate(15.98)" fill="none" stroke="#4550e5" stroke-linecap="round" stroke-linejoin="round" stroke-width="2.327"/><circle cx="19.546" cy="19.546" r="19.546" transform="translate(97.054 50.028)" fill="#d6daff"/><path d="M116.6,50.028a19.546,19.546,0,0,0-13.822,33.367l27.643-27.55A19.569,19.569,0,0,0,116.6,50.028Z" fill="#fff"/><circle cx="19.546" cy="19.546" r="19.546" transform="translate(97.054 50.028)" fill="none" stroke="#4550e5" stroke-miterlimit="10" stroke-width="2.327"/><line y2="2.443" transform="translate(116.599 79.346)" fill="none" stroke="#4550e5" stroke-linecap="round" stroke-linejoin="round" stroke-width="2.327"/><line y2="2.443" transform="translate(116.599 57.357)" fill="none" stroke="#4550e5" stroke-linecap="round" stroke-linejoin="round" stroke-width="2.327"/><path d="M111.69,74.46a4.886,4.886,0,1,0,4.886-4.886,4.886,4.886,0,1,1,4.886-4.886" fill="none" stroke="#4550e5" stroke-linecap="round" stroke-linejoin="round" stroke-width="2.327"/></g></g></svg>