<svg xmlns="http://www.w3.org/2000/svg" xmlns:xlink="http://www.w3.org/1999/xlink" width="307" height="185" viewBox="0 0 307 185">
  <defs>
    <clipPath id="clip-path">
      <path id="Path_53" data-name="Path 53" d="M0,0H307V185H0Z" transform="translate(82 965)" fill="#f2f2f2"/>
    </clipPath>
  </defs>
  <g id="Mask_Group_3" data-name="Mask Group 3" transform="translate(-82 -965)" clip-path="url(#clip-path)">
    <g id="monitor-cash-credit-card" transform="translate(109.317 930.865)">
      <path id="Path_77" data-name="Path 77" d="M227.617,135.345A101.287,101.287,0,1,0,34.083,177.252H218.6a100.907,100.907,0,0,0,9.015-41.908Z" fill="#f0f2ff"/>
      <line id="Line_50" data-name="Line 50" x2="197.51" transform="translate(26.309 177.126)" fill="none" stroke="#4550e5" stroke-linecap="round" stroke-linejoin="round" stroke-width="2.532"/>
      <line id="Line_51" data-name="Line 51" x2="6.33" transform="translate(14.915 177.126)" fill="none" stroke="#4550e5" stroke-linecap="round" stroke-linejoin="round" stroke-width="2.532"/>
      <line id="Line_52" data-name="Line 52" x2="6.33" transform="translate(228.883 177.126)" fill="none" stroke="#4550e5" stroke-linecap="round" stroke-linejoin="round" stroke-width="2.532"/>
      <ellipse id="Ellipse_10" data-name="Ellipse 10" cx="39.882" cy="3.976" rx="39.882" ry="3.976" transform="translate(87.006 211.184)" fill="#f0f2ff"/>
      <path id="Path_78" data-name="Path 78" d="M176.315,180.063V129.141a6.381,6.381,0,0,0-6.381-6.381H83.84a6.381,6.381,0,0,0-6.406,6.381v50.922Z" fill="#d6daff"/>
      <path id="Path_79" data-name="Path 79" d="M90.2,180.063l57.43-57.43H83.815a6.381,6.381,0,0,0-6.381,6.508v50.922Z" fill="#fff"/>
      <path id="Path_80" data-name="Path 80" d="M176.315,180.063v12.661a6.381,6.381,0,0,1-6.381,6.381H83.84a6.381,6.381,0,0,1-6.381-6.381V180.063Z" fill="#fff" stroke="#4550e5" stroke-linecap="round" stroke-linejoin="round" stroke-width="2.532"/>
      <path id="Path_81" data-name="Path 81" d="M130.078,189.635a3.191,3.191,0,1,1-3.191-3.191,3.191,3.191,0,0,1,3.191,3.191Z" fill="#d6daff" stroke="#4550e5" stroke-linecap="round" stroke-linejoin="round" stroke-width="2.532"/>
      <path id="Path_82" data-name="Path 82" d="M142.84,211.969H110.909l1.621-12.762h28.715Z" fill="#fff" stroke="#4550e5" stroke-linecap="round" stroke-linejoin="round" stroke-width="2.532"/>
      <line id="Line_53" data-name="Line 53" x2="51.023" transform="translate(101.363 211.969)" fill="none" stroke="#4550e5" stroke-linecap="round" stroke-linejoin="round" stroke-width="2.532"/>
      <path id="Path_83" data-name="Path 83" d="M176.315,180.063V129.141a6.381,6.381,0,0,0-6.381-6.381H83.84a6.381,6.381,0,0,0-6.406,6.381v50.922Z" fill="none" stroke="#4550e5" stroke-linecap="round" stroke-linejoin="round" stroke-width="2.532"/>
      <path id="Path_84" data-name="Path 84" d="M146.031,151.348A19.143,19.143,0,1,1,126.887,132.2,19.143,19.143,0,0,1,146.031,151.348Z" fill="#fff"/>
      <path id="Path_85" data-name="Path 85" d="M146.031,151.348A19.143,19.143,0,1,1,126.887,132.2,19.143,19.143,0,0,1,146.031,151.348Z" fill="none" stroke="#4550e5" stroke-linecap="round" stroke-linejoin="round" stroke-width="2.532"/>
      <path id="Path_86" data-name="Path 86" d="M123.7,162.515a4.761,4.761,0,0,1-3.393-1.393l-6.356-6.381a4.786,4.786,0,0,1,6.761-6.761l3.013,2.988,7.774-7.774a4.786,4.786,0,0,1,6.761,6.761L127.09,161.122A4.735,4.735,0,0,1,123.7,162.515Z" fill="#d6daff"/>
      <path id="Path_87" data-name="Path 87" d="M123.7,162.515a4.761,4.761,0,0,1-3.393-1.393l-6.356-6.381a4.786,4.786,0,0,1,6.761-6.761l3.013,2.988,7.774-7.774a4.786,4.786,0,0,1,6.761,6.761L127.09,161.122A4.735,4.735,0,0,1,123.7,162.515Z" fill="none" stroke="#4550e5" stroke-linecap="round" stroke-linejoin="round" stroke-width="2.532"/>
      <rect id="Rectangle_42" data-name="Rectangle 42" width="63.811" height="38.287" rx="2.659" transform="translate(3.178 90.576) rotate(-15.83)" fill="#fff"/>
      <path id="Path_88" data-name="Path 88" d="M65.381,99.489,61.912,87.208a6.406,6.406,0,0,1-7.9-4.406L17.193,93.235a6.406,6.406,0,0,1-4.406,7.9l3.469,12.281a6.381,6.381,0,0,1,7.9,4.381l36.818-10.433A6.381,6.381,0,0,1,65.381,99.489Z" fill="#fff"/>
      <path id="Path_89" data-name="Path 89" d="M45.225,98.552a6.381,6.381,0,1,1-7.875-4.381,6.381,6.381,0,0,1,7.875,4.381Z" fill="#d6daff"/>
      <path id="Path_90" data-name="Path 90" d="M45.225,98.552a6.381,6.381,0,1,1-7.875-4.381,6.381,6.381,0,0,1,7.875,4.381Z" fill="none" stroke="#4550e5" stroke-linecap="round" stroke-linejoin="round" stroke-width="2.532"/>
      <path id="Path_91" data-name="Path 91" d="M65.381,99.489,61.912,87.208a6.406,6.406,0,0,1-7.9-4.406L17.193,93.235a6.406,6.406,0,0,1-4.406,7.9l3.469,12.281a6.381,6.381,0,0,1,7.9,4.381l36.818-10.433A6.381,6.381,0,0,1,65.381,99.489Z" fill="none" stroke="#4550e5" stroke-linecap="round" stroke-linejoin="round" stroke-width="2.532"/>
      <rect id="Rectangle_43" data-name="Rectangle 43" width="63.811" height="38.287" rx="2.659" transform="translate(3.178 90.576) rotate(-15.83)" fill="none" stroke="#4550e5" stroke-linecap="round" stroke-linejoin="round" stroke-width="2.532"/>
      <path id="Path_92" data-name="Path 92" d="M235.037,125.95l-45-12.889a5.292,5.292,0,0,1-3.646-6.558l7.6-26.588a5.292,5.292,0,0,1,6.558-3.646l45.073,12.889a5.318,5.318,0,0,1,3.646,6.558l-7.6,26.588a5.292,5.292,0,0,1-6.634,3.646Z" fill="#fff"/>
      <rect id="Rectangle_44" data-name="Rectangle 44" width="57.43" height="6.381" transform="translate(193.731 80.933) rotate(15.98)" fill="#d6daff"/>
      <line id="Line_54" data-name="Line 54" x2="15.345" y2="4.381" transform="translate(192.825 107.238)" fill="none" stroke="#4550e5" stroke-linecap="round" stroke-linejoin="round" stroke-width="2.532"/>
      <rect id="Rectangle_45" data-name="Rectangle 45" width="44.668" height="6.381" transform="translate(196.349 94.946) rotate(15.98)" fill="#fff"/>
      <path id="Path_93" data-name="Path 93" d="M235.037,125.95l-45-12.889a5.292,5.292,0,0,1-3.646-6.558l7.6-26.588a5.292,5.292,0,0,1,6.558-3.646l45.073,12.889a5.318,5.318,0,0,1,3.646,6.558l-7.6,26.588a5.292,5.292,0,0,1-6.634,3.646Z" fill="none" stroke="#4550e5" stroke-linecap="round" stroke-linejoin="round" stroke-width="2.532"/>
      <rect id="Rectangle_46" data-name="Rectangle 46" width="57.43" height="6.381" transform="translate(193.731 80.933) rotate(15.98)" fill="none" stroke="#4550e5" stroke-linecap="round" stroke-linejoin="round" stroke-width="2.532"/>
      <rect id="Rectangle_47" data-name="Rectangle 47" width="44.668" height="6.381" transform="translate(196.349 94.946) rotate(15.98)" fill="none" stroke="#4550e5" stroke-linecap="round" stroke-linejoin="round" stroke-width="2.532"/>
      <circle id="Ellipse_11" data-name="Ellipse 11" cx="21.27" cy="21.27" r="21.27" transform="translate(105.617 54.442)" fill="#d6daff"/>
      <path id="Path_94" data-name="Path 94" d="M126.887,54.442a21.27,21.27,0,0,0-15.041,36.311l30.082-29.981A21.3,21.3,0,0,0,126.887,54.442Z" fill="#fff"/>
      <circle id="Ellipse_12" data-name="Ellipse 12" cx="21.27" cy="21.27" r="21.27" transform="translate(105.617 54.442)" fill="none" stroke="#4550e5" stroke-miterlimit="10" stroke-width="2.532"/>
      <line id="Line_55" data-name="Line 55" y2="2.659" transform="translate(126.887 86.347)" fill="none" stroke="#4550e5" stroke-linecap="round" stroke-linejoin="round" stroke-width="2.532"/>
      <line id="Line_56" data-name="Line 56" y2="2.659" transform="translate(126.887 62.418)" fill="none" stroke="#4550e5" stroke-linecap="round" stroke-linejoin="round" stroke-width="2.532"/>
      <path id="Path_95" data-name="Path 95" d="M121.544,81.03a5.318,5.318,0,1,0,5.318-5.318,5.318,5.318,0,1,1,5.318-5.318" fill="none" stroke="#4550e5" stroke-linecap="round" stroke-linejoin="round" stroke-width="2.532"/>
    </g>
  </g>
</svg>
