<svg xmlns="http://www.w3.org/2000/svg" xmlns:xlink="http://www.w3.org/1999/xlink" width="307" height="185" viewBox="0 0 307 185">
  <defs>
    <clipPath id="clip-path">
      <path id="Path_53" data-name="Path 53" d="M0,0H307V185H0Z" transform="translate(82 965)" fill="#f2f2f2"/>
    </clipPath>
  </defs>
  <g id="Mask_Group_2" data-name="Mask Group 2" transform="translate(-82 -965)" clip-path="url(#clip-path)">
    <g id="monitor-loading-progress" transform="translate(103.206 925.762)">
      <path id="Path_63" data-name="Path 63" d="M238.129,146.158A105.835,105.835,0,1,0,35.878,189.816H228.71A105.438,105.438,0,0,0,238.129,146.158Z" fill="#f0f2ff"/>
      <line id="Line_47" data-name="Line 47" x2="206.379" transform="translate(29.105 189.816)" fill="none" stroke="#4550e5" stroke-linecap="round" stroke-linejoin="round" stroke-width="2.646"/>
      <line id="Line_48" data-name="Line 48" x2="6.615" transform="translate(17.198 189.816)" fill="none" stroke="#4550e5" stroke-linecap="round" stroke-linejoin="round" stroke-width="2.646"/>
      <line id="Line_49" data-name="Line 49" x2="6.615" transform="translate(240.775 189.816)" fill="none" stroke="#4550e5" stroke-linecap="round" stroke-linejoin="round" stroke-width="2.646"/>
      <ellipse id="Ellipse_9" data-name="Ellipse 9" cx="39.291" cy="4.524" rx="39.291" ry="4.524" transform="translate(91.495 215.19)" fill="#f0f2ff"/>
      <path id="Path_64" data-name="Path 64" d="M191.244,114.037a9.578,9.578,0,0,0-9.6-9.578H82.948a9.578,9.578,0,0,0-9.6,9.578V179.47h117.9Z" fill="#d6daff"/>
      <path id="Path_65" data-name="Path 65" d="M152.112,104.459H82.948a9.578,9.578,0,0,0-9.6,9.578V179.47H77.1Z" fill="#fff"/>
      <path id="Path_66" data-name="Path 66" d="M146.582,208.046H118.006l1.773-14.288h25.03Z" fill="#fff"/>
      <path id="Path_67" data-name="Path 67" d="M146.582,208.046H118.006l1.773-14.288h25.03Z" fill="none" stroke="#4550e5" stroke-linecap="round" stroke-linejoin="round" stroke-width="2.646"/>
      <path id="Path_68" data-name="Path 68" d="M152.747,215.19H111.841a2.223,2.223,0,0,1-2.064-3.1,7.144,7.144,0,0,1,6.429-4.048h32.174a7.144,7.144,0,0,1,6.429,4.048,2.223,2.223,0,0,1-2.064,3.1Z" fill="#fff" stroke="#4550e5" stroke-linecap="round" stroke-linejoin="round" stroke-width="2.646"/>
      <path id="Path_69" data-name="Path 69" d="M181.64,193.758a9.578,9.578,0,0,0,9.6-9.578v-4.71H73.344v4.71a9.578,9.578,0,0,0,9.6,9.578Z" fill="#fff" stroke="#4550e5" stroke-linecap="round" stroke-linejoin="round" stroke-width="2.646"/>
      <path id="Path_70" data-name="Path 70" d="M191.244,114.037a9.578,9.578,0,0,0-9.6-9.578H82.948a9.578,9.578,0,0,0-9.6,9.578V179.47h117.9Z" fill="none" stroke="#4550e5" stroke-linecap="round" stroke-linejoin="round" stroke-width="2.646"/>
      <path id="Path_71" data-name="Path 71" d="M133.882,186.614a1.588,1.588,0,1,1-1.588-1.588A1.588,1.588,0,0,1,133.882,186.614Z" fill="none" stroke="#4550e5" stroke-linecap="round" stroke-linejoin="round" stroke-width="2.646"/>
      <path id="Path_72" data-name="Path 72" d="M167.722,153.964a6.377,6.377,0,0,1-6.324,6.4H103.189a6.4,6.4,0,0,1,0-12.78H161.4a6.377,6.377,0,0,1,6.324,6.377Z" fill="#d6daff" stroke="#4550e5" stroke-linejoin="round" stroke-width="2.646"/>
      <path id="Path_73" data-name="Path 73" d="M145.894,147.587h-42.7a6.4,6.4,0,0,0,0,12.78h42.7Z" fill="#fff" stroke="#4550e5" stroke-linejoin="round" stroke-width="2.646"/>
      <path id="Path_74" data-name="Path 74" d="M145.894,147.587h-42.7a6.4,6.4,0,0,0,0,12.78h42.7Z" fill="none" stroke="#4550e5" stroke-linejoin="round" stroke-width="2.646"/>
      <path id="Path_75" data-name="Path 75" d="M111.683,61.755a3.228,3.228,0,0,0-2.646,5.159l20.611,26.7a3.228,3.228,0,0,0,5.08,0l20.611-26.7a3.228,3.228,0,0,0-2.646-5.159h-7.938V46.938a6.377,6.377,0,0,0-6.377-6.377H125.891a6.377,6.377,0,0,0-6.377,6.377V61.755Z" fill="#fff"/>
      <path id="Path_76" data-name="Path 76" d="M111.683,61.755a3.228,3.228,0,0,0-2.646,5.159l20.611,26.7a3.228,3.228,0,0,0,5.08,0l20.611-26.7a3.228,3.228,0,0,0-2.646-5.159h-7.938V46.938a6.377,6.377,0,0,0-6.377-6.377H125.891a6.377,6.377,0,0,0-6.377,6.377V61.755Z" fill="none" stroke="#4550e5" stroke-linejoin="round" stroke-width="2.646"/>
    </g>
  </g>
</svg>
