<svg xmlns="http://www.w3.org/2000/svg" xmlns:xlink="http://www.w3.org/1999/xlink" width="307" height="185" viewBox="0 0 307 185">
  <defs>
    <clipPath id="clip-path">
      <path id="Path_53" data-name="Path 53" d="M0,0H307V185H0Z" transform="translate(82 965)" fill="#f2f2f2"/>
    </clipPath>
  </defs>
  <g id="Mask_Group_1" data-name="Mask Group 1" transform="translate(-82 -965)" clip-path="url(#clip-path)">
    <g id="monitor-window" transform="translate(100.733 922.056)">
      <path id="Path_54" data-name="Path 54" d="M243.928,150.75A107.813,107.813,0,1,0,37.9,195.223H234.332A107.489,107.489,0,0,0,243.928,150.75Z" fill="#f0f2ff"/>
      <line id="Line_38" data-name="Line 38" x2="210.236" transform="translate(29.649 195.223)" fill="none" stroke="#4550e5" stroke-linecap="round" stroke-linejoin="round" stroke-width="2.695"/>
      <line id="Line_39" data-name="Line 39" x2="6.738" transform="translate(17.52 195.223)" fill="none" stroke="#4550e5" stroke-linecap="round" stroke-linejoin="round" stroke-width="2.695"/>
      <line id="Line_40" data-name="Line 40" x2="6.738" transform="translate(245.275 195.223)" fill="none" stroke="#4550e5" stroke-linecap="round" stroke-linejoin="round" stroke-width="2.695"/>
      <rect id="Rectangle_32" data-name="Rectangle 32" width="130.185" height="92.989" rx="9.703" transform="translate(63.745 111.29)" fill="#d6daff"/>
      <path id="Path_55" data-name="Path 55" d="M142.475,111.29H74.9a11.159,11.159,0,0,0-11.159,11.159v67.572Z" fill="#fff"/>
      <rect id="Rectangle_33" data-name="Rectangle 33" width="130.185" height="92.989" rx="9.703" transform="translate(63.745 111.29)" fill="none" stroke="#4550e5" stroke-linecap="round" stroke-linejoin="round" stroke-width="2.695"/>
      <path id="Path_56" data-name="Path 56" d="M182.77,204.279a11.159,11.159,0,0,0,11.293-11.159V189.4H63.745v3.72A11.159,11.159,0,0,0,74.9,204.279Z" fill="#fff" stroke="#4550e5" stroke-linecap="round" stroke-linejoin="round" stroke-width="2.695"/>
      <path id="Path_57" data-name="Path 57" d="M140,219.157H117.678l1.86-14.878h18.6Z" fill="#fff"/>
      <path id="Path_58" data-name="Path 58" d="M140,219.157H117.678l1.86-14.878h18.6Z" fill="none" stroke="#4550e5" stroke-linecap="round" stroke-linejoin="round" stroke-width="2.695"/>
      <path id="Path_59" data-name="Path 59" d="M153.014,226.6H104.66a7.439,7.439,0,0,1,7.439-7.439h33.449a7.466,7.466,0,0,1,7.466,7.439Z" fill="#fff" stroke="#4550e5" stroke-linecap="round" stroke-linejoin="round" stroke-width="2.695"/>
      <path id="Path_60" data-name="Path 60" d="M93.5,98.272H201.314v64.2a6.469,6.469,0,0,1-6.469,6.469H99.97a6.469,6.469,0,0,1-6.469-6.469Z" fill="#fff" stroke="#4550e5" stroke-linecap="round" stroke-linejoin="round" stroke-width="2.695"/>
      <path id="Path_61" data-name="Path 61" d="M99.97,75.954H194.9a6.469,6.469,0,0,1,6.469,6.469V98.272H93.555V82.423a6.469,6.469,0,0,1,6.415-6.469Z" fill="#fff" stroke="#4550e5" stroke-linecap="round" stroke-linejoin="round" stroke-width="2.695"/>
      <circle id="Ellipse_5" data-name="Ellipse 5" cx="3.72" cy="3.72" r="3.72" transform="translate(100.94 83.394)" fill="#d6daff" stroke="#4550e5" stroke-linecap="round" stroke-linejoin="round" stroke-width="2.695"/>
      <circle id="Ellipse_6" data-name="Ellipse 6" cx="3.72" cy="3.72" r="3.72" transform="translate(115.818 83.394)" fill="#d6daff" stroke="#4550e5" stroke-linecap="round" stroke-linejoin="round" stroke-width="2.695"/>
      <circle id="Ellipse_7" data-name="Ellipse 7" cx="3.72" cy="3.72" r="3.72" transform="translate(130.697 83.394)" fill="#d6daff" stroke="#4550e5" stroke-linecap="round" stroke-linejoin="round" stroke-width="2.695"/>
      <rect id="Rectangle_34" data-name="Rectangle 34" width="14.878" height="14.878" rx="2.695" transform="translate(126.977 120.589)" fill="#d6daff" stroke="#4550e5" stroke-linecap="round" stroke-linejoin="round" stroke-width="2.695"/>
      <rect id="Rectangle_35" data-name="Rectangle 35" width="14.878" height="14.878" rx="2.695" transform="translate(151.154 120.589)" fill="#d6daff" stroke="#4550e5" stroke-linecap="round" stroke-linejoin="round" stroke-width="2.695"/>
      <rect id="Rectangle_36" data-name="Rectangle 36" width="14.878" height="14.878" rx="2.695" transform="translate(175.331 120.589)" fill="#d6daff" stroke="#4550e5" stroke-linecap="round" stroke-linejoin="round" stroke-width="2.695"/>
      <rect id="Rectangle_37" data-name="Rectangle 37" width="14.878" height="14.878" rx="2.695" transform="translate(126.977 142.907)" fill="#d6daff" stroke="#4550e5" stroke-linecap="round" stroke-linejoin="round" stroke-width="2.695"/>
      <rect id="Rectangle_38" data-name="Rectangle 38" width="14.878" height="14.878" rx="2.695" transform="translate(151.154 142.907)" fill="#d6daff" stroke="#4550e5" stroke-linecap="round" stroke-linejoin="round" stroke-width="2.695"/>
      <rect id="Rectangle_39" data-name="Rectangle 39" width="14.878" height="14.878" rx="2.695" transform="translate(175.331 142.907)" fill="#d6daff" stroke="#4550e5" stroke-linecap="round" stroke-linejoin="round" stroke-width="2.695"/>
      <rect id="Rectangle_40" data-name="Rectangle 40" width="14.878" height="7.439" rx="2.695" transform="translate(104.66 105.711)" fill="#d6daff" stroke="#4550e5" stroke-linecap="round" stroke-linejoin="round" stroke-width="2.695"/>
      <rect id="Rectangle_41" data-name="Rectangle 41" width="63.232" height="7.439" rx="2.695" transform="translate(126.977 105.711)" fill="#d6daff" stroke="#4550e5" stroke-linejoin="round" stroke-width="2.695"/>
      <line id="Line_41" data-name="Line 41" x2="14.878" transform="translate(104.66 120.589)" fill="none" stroke="#4550e5" stroke-linecap="round" stroke-linejoin="round" stroke-width="2.695"/>
      <line id="Line_42" data-name="Line 42" x2="14.878" transform="translate(104.66 128.028)" fill="none" stroke="#4550e5" stroke-linecap="round" stroke-linejoin="round" stroke-width="2.695"/>
      <line id="Line_43" data-name="Line 43" x2="14.878" transform="translate(104.66 135.467)" fill="none" stroke="#4550e5" stroke-linecap="round" stroke-linejoin="round" stroke-width="2.695"/>
      <line id="Line_44" data-name="Line 44" x2="14.878" transform="translate(104.66 142.907)" fill="none" stroke="#4550e5" stroke-linecap="round" stroke-linejoin="round" stroke-width="2.695"/>
      <line id="Line_45" data-name="Line 45" x2="14.878" transform="translate(104.66 150.346)" fill="none" stroke="#4550e5" stroke-linecap="round" stroke-linejoin="round" stroke-width="2.695"/>
      <line id="Line_46" data-name="Line 46" x2="9.299" transform="translate(104.66 157.785)" fill="none" stroke="#4550e5" stroke-linecap="round" stroke-linejoin="round" stroke-width="2.695"/>
      <path id="Path_62" data-name="Path 62" d="M225.545,198.511c-.539,1.968-1.617,2.021-2.4,0l-12.21-29.137c-.782-1.887,0-2.7,2.021-1.995l29.271,12.183c1.887.809,1.806,1.887-.162,2.426l-9.38,2.7a7.277,7.277,0,0,0-4.582,4.555Z" fill="#fff" stroke="#4550e5" stroke-linejoin="round" stroke-width="2.695"/>
      <circle id="Ellipse_8" data-name="Ellipse 8" cx="1.563" cy="1.563" r="1.563" transform="translate(127.274 195.277)" fill="none" stroke="#4550e5" stroke-linecap="round" stroke-linejoin="round" stroke-width="2.695"/>
    </g>
  </g>
</svg>
