<svg xmlns="http://www.w3.org/2000/svg" xmlns:xlink="http://www.w3.org/1999/xlink" width="50" height="50" viewBox="0 0 50 50"><defs><clipPath id="a"><rect width="50" height="50" transform="translate(559 2617)" fill="#fff" stroke="#707070" stroke-width="1"/></clipPath></defs><g transform="translate(-559 -2617)" clip-path="url(#a)"><g transform="translate(559 2617)"><rect width="50" height="50" rx="4" fill="#4456dd" stroke="#707070" stroke-width="0.098"/><path d="M41.7,16.5a4.439,4.439,0,0,0-3.125-3.027c-3.32-.879-23.34-.977-27.148,0A4.439,4.439,0,0,0,8.3,16.5c-.879,3.711-.977,13.184,0,16.992a4.439,4.439,0,0,0,3.125,3.027c3.516.977,23.535.977,27.148,0A4.439,4.439,0,0,0,41.7,33.5c.879-3.516.879-13.379,0-16.992" stroke="#707070" stroke-width="0.098"/><path d="M21.484,19.824V30.176L30.566,25" fill="#4456dd" stroke="#707070" stroke-width="0.098"/></g></g></svg>